# Blender 4.2.0
# www.blender.org
mtllib chromakey_model.mtl
o Cube
v -1.000000 1.000000 1.000000
v 1.000000 1.000000 1.000000
v -1.000000 1.000000 -1.000000
v 1.000000 1.000000 -1.000000
v 1.000000 0.000000 -1.000000
v -1.000000 0.000000 -1.000000
v 1.000000 0.000000 1.000000
v -1.000000 0.000000 1.000000
vn -1.0000 -0.0000 -0.0000
vn -0.0000 -1.0000 -0.0000
vn -0.0000 1.0000 -0.0000
vn -0.0000 -0.0000 -1.0000
vn -0.0000 -0.0000 1.0000
vn 1.0000 -0.0000 -0.0000
vt 1.000000 0.000000
vt 1.000000 1.000000
vt 0.000000 0.000000
vt 0.000000 1.000000
s 0
usemtl chromakey
f 7/1/1 2/1/1 4/2/1 5/2/1
f 1/3/2 3/4/2 4/2/2 2/1/2
f 8/3/3 7/1/3 5/2/3 6/4/3
f 8/3/4 1/3/4 2/1/4 7/1/4
f 5/2/5 4/2/5 3/4/5 6/4/5
f 6/4/6 3/4/6 1/3/6 8/3/6
